<?xml version="1.0" standalone="no"?><!DOCTYPE svg PUBLIC "-//W3C//DTD SVG 1.1//EN" "http://www.w3.org/Graphics/SVG/1.1/DTD/svg11.dtd"><svg t="1613723179996" class="icon" viewBox="0 0 1024 1024" version="1.1" xmlns="http://www.w3.org/2000/svg" p-id="1122" xmlns:xlink="http://www.w3.org/1999/xlink" width="200" height="200"><defs><style type="text/css"></style></defs><path d="M744.727273 0H279.272727a279.272727 279.272727 0 0 0-279.272727 279.272727v465.454546a279.272727 279.272727 0 0 0 279.272727 279.272727h465.454546a279.272727 279.272727 0 0 0 279.272727-279.272727V279.272727a279.272727 279.272727 0 0 0-279.272727-279.272727zM279.272727 31.030303h465.454546a248.242424 248.242424 0 0 1 245.449697 218.763636H32.892121A248.242424 248.242424 0 0 1 279.272727 31.030303z m465.454546 961.939394H279.272727a248.242424 248.242424 0 0 1-248.242424-248.242424V279.272727h961.939394v465.454546a248.242424 248.242424 0 0 1-248.242424 248.242424z" p-id="1123" fill="#13227a"></path><path d="M192.698182 635.810909l175.010909-148.635151a31.030303 31.030303 0 1 0-40.029091-47.166061L124.121212 612.227879a31.030303 31.030303 0 0 0-10.860606 23.893333 31.030303 31.030303 0 0 0 11.170909 23.58303l206.041212 171.597576a31.030303 31.030303 0 0 0 19.859394 7.13697 31.030303 31.030303 0 0 0 19.859394-54.923636zM696.009697 440.009697a31.030303 31.030303 0 1 0-40.339394 47.166061l175.321212 148.635151-177.803636 147.704243a31.030303 31.030303 0 0 0-4.03394 43.752727 31.030303 31.030303 0 0 0 23.893334 11.170909 31.030303 31.030303 0 0 0 19.859394-7.13697L899.878788 659.704242a31.030303 31.030303 0 0 0 11.170909-23.58303 31.030303 31.030303 0 0 0-10.860606-23.893333zM581.197576 434.424242a31.030303 31.030303 0 0 0-39.408485 19.549091l-115.122424 343.815758a31.030303 31.030303 0 0 0 19.549091 40.029091 28.858182 28.858182 0 0 0 9.929697 1.551515 31.030303 31.030303 0 0 0 31.030303-21.100606l115.122424-343.815758a31.030303 31.030303 0 0 0-21.100606-40.029091z" p-id="1124" fill="#13227a"></path></svg>